<svg xmlns="http://www.w3.org/2000/svg" viewBox="0 0 600 400" preserveAspectRatio="xMidYMid slice" role="img" aria-label="Illustration einer gepflasterten Terrasse mit Sonnenschirm">
  <rect width="600" height="400" fill="#cfe7ef"/>
  <rect y="120" width="600" height="110" fill="#3c8448"/>
  <g fill="#3c8448"><circle cx="30" cy="124" r="28"/><circle cx="95" cy="112" r="32"/><circle cx="165" cy="122" r="28"/><circle cx="235" cy="110" r="32"/><circle cx="305" cy="122" r="28"/><circle cx="375" cy="112" r="32"/><circle cx="445" cy="122" r="28"/><circle cx="515" cy="110" r="32"/><circle cx="580" cy="122" r="28"/></g>
  <path d="M0 230H600V400H0Z" fill="#d9ccb0"/>
  <g stroke="#bfae8c" stroke-width="2" fill="none">
    <path d="M0 262H600M0 300H600M0 346H600"/>
    <path d="M60 230 20 400M150 230 130 400M240 230 238 400M330 230 346 400M420 230 454 400M510 230 562 400"/>
  </g>
  <path d="M0 226H600V236H0Z" fill="#c2b392"/>
  <path d="M300 120V300" stroke="#5b3b22" stroke-width="6"/>
  <path d="M190 128Q300 60 410 128Z" fill="#e0664a"/>
  <path d="M245 128Q300 66 300 72 300 66 355 128Z" fill="#f08a6b"/>
  <ellipse cx="300" cy="300" rx="70" ry="14" fill="#8a5a32"/>
  <rect x="294" y="300" width="12" height="46" fill="#5b3b22"/>
  <ellipse cx="300" cy="376" rx="84" ry="10" fill="#000" opacity=".08"/>
  <g fill="#173a28">
    <rect x="190" y="290" width="44" height="8" rx="3"/><rect x="194" y="298" width="5" height="46"/><rect x="226" y="298" width="5" height="46"/><rect x="190" y="252" width="6" height="42"/>
    <rect x="366" y="290" width="44" height="8" rx="3"/><rect x="370" y="298" width="5" height="46"/><rect x="402" y="298" width="5" height="46"/><rect x="404" y="252" width="6" height="42"/>
  </g>
  <path d="M40 300h70l-10 72H50z" fill="#6f7d74"/>
  <circle cx="75" cy="270" r="36" fill="#4a9a52"/><circle cx="54" cy="288" r="18" fill="#2f6b45"/><circle cx="98" cy="288" r="18" fill="#3c8448"/>
  <path d="M490 300h70l-10 72h-50z" fill="#6f7d74"/>
  <path d="M525 300c-4-40-26-66-36-76M525 300c0-44 8-70 24-88M525 300c6-30 26-44 40-52" stroke="#2f6b45" stroke-width="6" fill="none" stroke-linecap="round"/>
</svg>
